<!-- This Source Code Form is subject to the terms of the Mozilla Public
   - License, v. 2.0. If a copy of the MPL was not distributed with this
   - file, You can obtain one at http://mozilla.org/MPL/2.0/. -->
<svg width="16" height="16" viewBox="0 0 16 16" xmlns="http://www.w3.org/2000/svg" fill="context-fill #0b0b0b">
  <path d="M5 3h3V2c0-.003-3 0-3 0-.002 0 0 1 0 1zm-5 .5A.5.5 0 0 1 .494 3h12.012a.5.5 0 0 1 0 1H.494A.502.502 0 0 1 0 3.5zM4 3V2c0-.553.444-1 1-1h3c.552 0 1 .443 1 1v1H4zM5 11V6a.5.5 0 0 0-1 0v5a.5.5 0 1 0 1 0zM7 11V6a.5.5 0 0 0-1 0v5a.5.5 0 1 0 1 0zM9 11V6a.5.5 0 0 0-1 0v5a.5.5 0 1 0 1 0z"/>
  <path d="M3 4v9h7V4H3zm0-1h7a1 1 0 0 1 1 1v9a1 1 0 0 1-1 1H3a1 1 0 0 1-1-1V4a1 1 0 0 1 1-1z"/>
</svg>