<?xml version="1.0" encoding="UTF-8"?>
<svg width="56px" height="48px" viewBox="0 0 56 48" version="1.1" xmlns="http://www.w3.org/2000/svg" xmlns:xlink="http://www.w3.org/1999/xlink">
    <!-- Generator: Sketch 50.2 (55047) - http://www.bohemiancoding.com/sketch -->
    <title>webconsole</title>
    <desc>Created with Sketch.</desc>
    <defs></defs>
    <g id="Page-1" stroke="none" stroke-width="1" fill="none" fill-rule="evenodd">
        <g id="webconsole">
            <rect id="Rectangle-2" fill="#FFFFFF" x="2.8" y="2.6" width="50.2" height="42.4"></rect>
            <path d="M52,8 L52,4 L4,4 L4,8 L52,8 Z M52,12 L52,44 L4,44 L4,12 L52,12 Z M4.4408921e-16,4.008 C4.4408921e-16,1.8 1.8,0 4.028,0 L51.972,0 C54.1861131,0.00650722063 55.982472,1.79394676 56,4.008 L56,43.992 C56,46.2 54.2,48 51.972,48 L4.028,48 C1.81388694,47.9934928 0.0175280427,46.2060532 0,43.992 L4.4408921e-16,4.008 Z" id="Shape" fill="#000000"></path>
            <rect id="Rectangle" fill="#FF4400" x="19.2" y="28" width="3.2" height="4.4"></rect>
            <path d="M12.36,23.436 L20.608,31.436 L20.584,28.584 L12.34,36.832 C11.5820556,37.6167578 11.5928953,38.8641696 12.3643628,39.6356372 C13.1358304,40.4071047 14.3832422,40.4179444 15.168,39.66 L23.416,31.416 C23.79519,31.0368028 24.0062147,30.521212 24.0017021,29.9849702 C23.9971896,29.4487285 23.7775178,28.9367621 23.392,28.564 L15.148,20.564 C14.6349666,20.0659718 13.8952093,19.8794747 13.2073875,20.0747606 C12.5195657,20.2700464 11.9881759,20.8174465 11.8133875,21.5107606 C11.6385991,22.2040746 11.8469666,22.9379718 12.36,23.436 Z" id="Shape" fill="#FF4400"></path>
        </g>
    </g>
</svg>